<svg id="svg" xmlns="http://www.w3.org/2000/svg" xmlns:xlink="http://www.w3.org/1999/xlink" width="400" height="463.76811594202894" viewBox="0, 0, 400,463.76811594202894"><g id="svgg"><path id="path0" d="M157.888 40.884 C 86.613 56.184,32.686 146.379,32.166 251.158 L 31.884 308.112 53.538 327.969 C 85.918 357.662,142.422 351.546,165.834 315.814 C 171.441 307.258,182.227 301.861,197.931 299.754 C 223.383 296.341,249.952 275.554,264.523 247.656 C 280.004 218.014,258.525 208.862,241.424 237.813 C 231.289 254.970,204.959 276.456,200.065 271.563 C 198.706 270.204,205.185 247.170,214.463 220.377 C 257.645 95.670,235.149 24.299,157.888 40.884 M199.586 78.675 C 217.361 96.450,207.611 171.540,178.843 238.411 C 164.656 271.389,158.773 271.652,140.294 240.129 C 107.899 184.867,161.049 40.138,199.586 78.675 M120.813 109.322 C 91.004 169.572,94.564 236.924,129.673 276.910 L 147.155 296.821 132.998 307.702 C 51.652 370.223,30.437 201.090,107.933 107.884 C 129.976 81.373,134.397 81.867,120.813 109.322 " stroke="none" fill="#000000" fill-rule="evenodd"></path></g></svg>